<?xml version="1.0" encoding="UTF-8"?>
<svg id="montagne_millieu" xmlns="http://www.w3.org/2000/svg" viewBox="0 0 3840 2160">
  <defs>
    <style>
      .cls-1 {
        fill: #509377;
      }

      .cls-2 {
        fill: #65ba9b;
      }

      .cls-3 {
        fill: #c7e2e0;
      }

      .cls-4 {
        fill: #ededed;
      }
    </style>
  </defs>
  <polygon class="cls-2" points="1212.05 1299.93 872.95 664.9 515.36 1179.71 105.37 507.68 -5.46 725.57 -1.7 1867.15 -1.7 2155.22 1263.36 2160 1212.05 1299.93"/>
  <polygon class="cls-1" points="3552.79 1075.22 3487.08 935.06 3435.64 1022.49 3238.35 655.65 3111.96 831.37 2890.01 461.44 2501.59 948.51 2501.59 1900.11 2501.59 2158.09 3845.46 2135.34 3845.46 1534.22 3845.46 1142.72 3676.09 908.43 3552.79 1075.22"/>
  <polygon class="cls-3" points="2890.01 461.44 3111.96 831.37 2967.08 768.13 2851.48 874.52 2662.54 746.92 2890.01 461.44"/>
  <polygon class="cls-4" points="107.25 492.27 208.08 669.4 141.4 640.17 95.87 605.52 31.28 646.34 107.25 492.27"/>
</svg>