<?xml version="1.0" encoding="UTF-8"?>
<svg xmlns="http://www.w3.org/2000/svg" viewBox="0 0 3840 2160">
  <defs>
    <style>
      .cls-1 {
        fill: #428e32;
      }

      .cls-2 {
        fill: #39842c;
      }

      .cls-3 {
        fill: #7acff4;
      }

      .cls-4 {
        fill: #64bc77;
      }

      .cls-5 {
        fill: #97cea4;
      }

      .cls-6 {
        fill: #0e5402;
      }

      .cls-7 {
        fill: #5ca050;
      }

      .cls-8 {
        fill: #c1f4cc;
      }

      .cls-9 {
        fill: #28661e;
      }
    </style>
  </defs>
  <g id="montagne_millieu">
    <path class="cls-8" d="M0,1846.83c0-99.88,0-215.87,0-345.34,1001.69,274.39,2076.54.8,2388.89,0,514.81-1.32,520.03,132.71,847.86,93.58,422.2-50.4,591.87-59.77,603.25-50.4,0,22.04,0,302.15,0,302.15H319.64S0,1846.83,0,1846.83Z"/>
    <path class="cls-3" d="M1391.94,1664.22c-12.33-24.46,33.38-57.41,48.71-58.57,15.34-1.16,160.52-14.21,160.52-14.21,0,0-110.76,17.88-110.76,46.1,0,39.3,152.57,60.4,207.02,69.28,32.53,5.3-293.16-18.14-305.49-42.6Z"/>
    <path class="cls-4" d="M0,2002.3c0-99.88,0-241.84,0-371.31,573.19-274.36,1026.35-36.99,1343.86,24.46,546.17,105.71,1303.16,35.72,1473.52,6.37,326.63-56.28,801.5-83.23,1022.62,33.91,0,22.04,0,306.57,0,306.57H319.64S0,2002.3,0,2002.3Z"/>
    <path class="cls-3" d="M964.56,1934.12c-12.83,1.31,312.81-7.82,407.55-24.86,88.45-15.91,276.67-45.47,261.26-94.79-15.41-49.32-147.96-113.21-160.29-137.67,11.94,1.21,210.39,22.02,284.08,23.35,32.95.6,311.36,76.42,225.33,136.28-74.75,52.02-160.68,79.76-160.68,79.76,0,0-298.21,67.32-495.93,76.97-215.02,10.5-357.98-45.04-361.31-59.04Z"/>
    <path class="cls-5" d="M3840,2165.68c0-99.88,0-66.89,0-196.36-132.37-122.54-745.82-267.43-1112.01-220.5-165.52,21.21-1379.76,236.79-1529.01,230.51C906.12,1967.01,11.37,1646.28,0,1655.66,0,1677.7,0,2165.68,0,2165.68h3840Z"/>
    <path class="cls-3" d="M557.13,2165.68c58.57-106.2,236.28-252.79,301.53-251.3,76.87,1.76,207.12,61.1,339.66,61.1,92.6,0,486.29-58.19,486.29-58.19,0,0-128.7,46.63-82.46,123.69,46.24,77.07,147.97,124.69,147.97,124.69H557.13Z"/>
  </g>
  <g id="sapin">
    <path class="cls-6" d="M179.58,1550.42l-33.95-78.29h13.2l-31.23-72.03h20.1l-44.52-102.67c-1.45,2.68-45.49,102.67-45.49,102.67h20.65c-15.23,34.45-31.78,72.03-31.78,72.03h13.78c-17.89,40.5-29.63,64.86-34.53,78.29,71.75,22.74,153.76,0,153.76,0Z"/>
    <path class="cls-6" d="M2770.21,1586.7l-33.95-78.29h13.2l-31.23-72.03h20.1l-44.52-102.67c-1.45,2.68-45.49,102.67-45.49,102.67h20.65c-15.23,34.45-31.78,72.03-31.78,72.03h13.78c-17.89,40.5-29.63,64.86-34.53,78.29,71.75,22.74,153.76,0,153.76,0Z"/>
    <path class="cls-6" d="M3814.53,1578.36l-33.95-78.29h13.2l-31.23-72.03h20.1l-44.52-102.67c-1.45,2.68-45.49,102.67-45.49,102.67h20.65c-15.23,34.45-31.78,72.03-31.78,72.03h13.78c-17.89,40.5-29.63,64.86-34.53,78.29,71.75,22.74,153.76,0,153.76,0Z"/>
    <path class="cls-6" d="M2481.18,1610.07l-33.95-78.29h13.2l-31.23-72.03h20.1l-44.52-102.67c-1.45,2.68-45.49,102.67-45.49,102.67h20.65c-15.23,34.45-31.78,72.03-31.78,72.03h13.78c-17.89,40.5-29.63,64.86-34.53,78.29,71.75,22.74,153.76,0,153.76,0Z"/>
    <path class="cls-6" d="M2246.01,1576.18l-33.95-78.29h13.2l-31.23-72.03h20.1l-44.52-102.67c-1.45,2.68-45.49,102.67-45.49,102.67h20.65c-15.23,34.45-31.78,72.03-31.78,72.03h13.78c-17.89,40.5-29.63,64.86-34.53,78.29,71.75,22.74,153.76,0,153.76,0Z"/>
    <path id="nope" class="cls-6" d="M1904.07,1635.38l-33.95-78.29h13.2l-31.23-72.03h20.1l-44.52-102.67c-1.45,2.68-45.49,102.67-45.49,102.67h20.65c-15.23,34.45-31.78,72.03-31.78,72.03h13.78c-17.89,40.5-29.63,64.86-34.53,78.29,71.75,22.74,153.76,0,153.76,0Z"/>
    <path class="cls-6" d="M3466.8,1692.07l-33.95-78.29h13.2l-31.23-72.03h20.1l-44.52-102.67c-1.45,2.68-45.49,102.67-45.49,102.67h20.65c-15.23,34.45-31.78,72.03-31.78,72.03h13.78c-17.89,40.5-29.63,64.86-34.53,78.29,71.75,22.74,153.76,0,153.76,0Z"/>
    <path class="cls-7" d="M3691.79,1692.07l-33.95-78.29h13.2l-31.23-72.03h20.1l-44.52-102.67c-1.45,2.68-45.49,102.67-45.49,102.67h20.65c-15.23,34.45-31.78,72.03-31.78,72.03h13.78c-17.89,40.5-29.63,64.86-34.53,78.29,71.75,22.74,153.76,0,153.76,0Z"/>
    <path class="cls-9" d="M3586.35,1734.37l-33.95-78.29h13.2l-31.23-72.03h20.1l-44.52-102.67c-1.45,2.68-45.49,102.67-45.49,102.67h20.65c-15.23,34.45-31.78,72.03-31.78,72.03h13.78c-17.89,40.5-29.63,64.86-34.53,78.29,71.75,22.74,153.76,0,153.76,0Z"/>
    <path class="cls-6" d="M3109.83,1701.32l-33.95-78.29h13.2l-31.23-72.03h20.1l-44.52-102.67c-1.45,2.68-45.49,102.67-45.49,102.67h20.65c-15.23,34.45-31.78,72.03-31.78,72.03h13.78c-17.89,40.5-29.63,64.86-34.53,78.29,71.75,22.74,153.76,0,153.76,0Z"/>
    <path class="cls-7" d="M2154.19,1776.89l-33.95-78.29h13.2l-31.23-72.03h20.1l-44.52-102.67c-1.45,2.68-45.49,102.67-45.49,102.67h20.65c-15.23,34.45-31.78,72.03-31.78,72.03h13.78c-17.89,40.5-29.63,64.86-34.53,78.29,71.75,22.74,153.76,0,153.76,0Z"/>
    <path class="cls-7" d="M3186.71,1723.41l-33.95-78.29h13.2l-31.23-72.03h20.1l-44.52-102.67c-1.45,2.68-45.49,102.67-45.49,102.67h20.65c-15.23,34.45-31.78,72.03-31.78,72.03h13.78c-17.89,40.5-29.63,64.86-34.53,78.29,71.75,22.74,153.76,0,153.76,0Z"/>
    <path class="cls-2" d="M2354.94,1805.96l-36.15-87.62h14.06l-33.26-80.61h21.41l-47.4-114.9c-1.55,3-48.44,114.9-48.44,114.9h21.99c-16.22,38.56-33.84,80.61-33.84,80.61h14.68c-19.05,45.33-31.55,72.59-36.77,87.62,76.4,25.45,163.72,0,163.72,0Z"/>
    <path class="cls-2" d="M2860.48,1722.2l-36.15-87.62h14.06l-33.26-80.61h21.41l-47.4-114.9c-1.55,3-48.44,114.9-48.44,114.9h21.99c-16.22,38.56-33.84,80.61-33.84,80.61h14.68c-19.05,45.33-31.55,72.59-36.77,87.62,76.4,25.45,163.72,0,163.72,0Z"/>
    <path class="cls-2" d="M3318.03,1732.72l-36.15-87.62h14.06l-33.26-80.61h21.41l-47.4-114.9c-1.55,3-48.44,114.9-48.44,114.9h21.99c-16.22,38.56-33.84,80.61-33.84,80.61h14.68c-19.05,45.33-31.55,72.59-36.77,87.62,76.4,25.45,163.72,0,163.72,0Z"/>
    <path class="cls-7" d="M2693.34,1741.61l-33.95-78.29h13.2l-31.23-72.03h20.1l-44.52-102.67c-1.45,2.68-45.49,102.67-45.49,102.67h20.65c-15.23,34.45-31.78,72.03-31.78,72.03h13.78c-17.89,40.5-29.63,64.86-34.53,78.29,71.75,22.74,153.76,0,153.76,0Z"/>
    <path class="cls-6" d="M605.57,1675.64l33.95-78.29h-13.2s31.23-72.03,31.23-72.03h-20.1s44.52-102.67,44.52-102.67c1.45,2.68,45.49,102.67,45.49,102.67h-20.65c15.23,34.45,31.78,72.03,31.78,72.03h-13.78c17.89,40.5,29.63,64.86,34.53,78.29-71.75,22.74-153.76,0-153.76,0Z"/>
    <path class="cls-7" d="M264.51,1597.03l33.95-78.29h-13.2s31.23-72.03,31.23-72.03h-20.1s44.52-102.67,44.52-102.67c1.45,2.68,45.49,102.67,45.49,102.67h-20.65c15.23,34.45,31.78,72.03,31.78,72.03h-13.78c17.89,40.5,29.63,64.86,34.53,78.29-71.75,22.74-153.76,0-153.76,0Z"/>
    <path class="cls-9" d="M383.25,1728.57l33.95-78.29h-13.2s31.23-72.03,31.23-72.03h-20.1s44.52-102.67,44.52-102.67c1.45,2.68,45.49,102.67,45.49,102.67h-20.65c15.23,34.45,31.78,72.03,31.78,72.03h-13.78c17.89,40.5,29.63,64.86,34.53,78.29-71.75,22.74-153.76,0-153.76,0Z"/>
    <path class="cls-6" d="M999.54,1692.07l33.95-78.29h-13.2s31.23-72.03,31.23-72.03h-20.1s44.52-102.67,44.52-102.67c1.45,2.68,45.49,102.67,45.49,102.67h-20.65c15.23,34.45,31.78,72.03,31.78,72.03h-13.78c17.89,40.5,29.63,64.86,34.53,78.29-71.75,22.74-153.76,0-153.76,0Z"/>
    <path class="cls-7" d="M1160.02,1801.49l33.95-78.29h-13.2s31.23-72.03,31.23-72.03h-20.1s44.52-102.67,44.52-102.67c1.45,2.68,45.49,102.67,45.49,102.67h-20.65c15.23,34.45,31.78,72.03,31.78,72.03h-13.78c17.89,40.5,29.63,64.86,34.53,78.29-71.75,22.74-153.76,0-153.76,0Z"/>
    <path class="cls-7" d="M731.62,1770.81l33.95-78.29h-13.2s31.23-72.03,31.23-72.03h-20.1s44.52-102.67,44.52-102.67c1.45,2.68,45.49,102.67,45.49,102.67h-20.65c15.23,34.45,31.78,72.03,31.78,72.03h-13.78c17.89,40.5,29.63,64.86,34.53,78.29-71.75,22.74-153.76,0-153.76,0Z"/>
    <path class="cls-2" d="M868.32,2060.66l50.56-112.28h-19.66s46.51-103.3,46.51-103.3h-29.94s66.3-147.25,66.3-147.25c2.16,3.85,67.74,147.25,67.74,147.25h-30.75c22.68,49.41,47.33,103.3,47.33,103.3h-20.53c26.64,58.09,44.13,93.02,51.42,112.28-106.85,32.62-228.98,0-228.98,0Z"/>
    <path class="cls-6" d="M3186.71,1844.43l-33.95-78.29h13.2l-31.23-72.03h20.1l-44.52-102.67c-1.45,2.68-45.49,102.67-45.49,102.67h20.65c-15.23,34.45-31.78,72.03-31.78,72.03h13.78c-17.89,40.5-29.63,64.86-34.53,78.29,71.75,22.74,153.76,0,153.76,0Z"/>
    <path class="cls-6" d="M2474.45,1923.04l-33.95-78.29h13.2l-31.23-72.03h20.1l-44.52-102.67c-1.45,2.68-45.49,102.67-45.49,102.67h20.65c-15.23,34.45-31.78,72.03-31.78,72.03h13.78c-17.89,40.5-29.63,64.86-34.53,78.29,71.75,22.74,153.76,0,153.76,0Z"/>
    <path class="cls-7" d="M2815.51,1844.43l-33.95-78.29h13.2l-31.23-72.03h20.1l-44.52-102.67c-1.45,2.68-45.49,102.67-45.49,102.67h20.65c-15.23,34.45-31.78,72.03-31.78,72.03h13.78c-17.89,40.5-29.63,64.86-34.53,78.29,71.75,22.74,153.76,0,153.76,0Z"/>
    <path class="cls-9" d="M3313.05,1939.47l-33.95-78.29h13.2l-31.23-72.03h20.1l-44.52-102.67c-1.45,2.68-45.49,102.67-45.49,102.67h20.65c-15.23,34.45-31.78,72.03-31.78,72.03h13.78c-17.89,40.5-29.63,64.86-34.53,78.29,71.75,22.74,153.76,0,153.76,0Z"/>
    <path class="cls-9" d="M2892.38,1950.34l-33.95-78.29h13.2l-31.23-72.03h20.1l-44.52-102.67c-1.45,2.68-45.49,102.67-45.49,102.67h20.65c-15.23,34.45-31.78,72.03-31.78,72.03h13.78c-17.89,40.5-29.63,64.86-34.53,78.29,71.75,22.74,153.76,0,153.76,0Z"/>
    <path class="cls-9" d="M2696.76,1975.97l-33.95-78.29h13.2l-31.23-72.03h20.1l-44.52-102.67c-1.45,2.68-45.49,102.67-45.49,102.67h20.65c-15.23,34.45-31.78,72.03-31.78,72.03h13.78c-17.89,40.5-29.63,64.86-34.53,78.29,71.75,22.74,153.76,0,153.76,0Z"/>
    <path class="cls-6" d="M2080.48,1939.47l-33.95-78.29h13.2l-31.23-72.03h20.1l-44.52-102.67c-1.45,2.68-45.49,102.67-45.49,102.67h20.65c-15.23,34.45-31.78,72.03-31.78,72.03h13.78c-17.89,40.5-29.63,64.86-34.53,78.29,71.75,22.74,153.76,0,153.76,0Z"/>
    <path class="cls-7" d="M3614.91,1968.99l-40.25-84.44h15.66l-37.04-77.69h23.84l-52.79-110.74c-1.72,2.9-53.94,110.74-53.94,110.74h24.48c-18.06,37.16-37.68,77.69-37.68,77.69h16.34c-21.21,43.69-35.14,69.96-40.94,84.44,85.08,24.53,182.32,0,182.32,0Z"/>
    <path class="cls-7" d="M1920,2048.89l-33.95-78.29h13.2l-31.23-72.03h20.1l-44.52-102.67c-1.45,2.68-45.49,102.67-45.49,102.67h20.65c-15.23,34.45-31.78,72.03-31.78,72.03h13.78c-17.89,40.5-29.63,64.86-34.53,78.29,71.75,22.74,153.76,0,153.76,0Z"/>
    <path class="cls-7" d="M2348.4,2018.21l-33.95-78.29h13.2l-31.23-72.03h20.1l-44.52-102.67c-1.45,2.68-45.49,102.67-45.49,102.67h20.65c-15.23,34.45-31.78,72.03-31.78,72.03h13.78c-17.89,40.5-29.63,64.86-34.53,78.29,71.75,22.74,153.76,0,153.76,0Z"/>
    <path class="cls-2" d="M3799.11,2016.51l-45.79-103.64h17.81l-42.13-95.35h27.12l-60.05-135.91c-1.96,3.55-61.36,135.91-61.36,135.91h27.85c-20.54,45.61-42.87,95.35-42.87,95.35h18.59c-24.13,53.62-39.97,85.86-46.57,103.64,96.78,30.11,207.4,0,207.4,0Z"/>
    <path class="cls-2" d="M3542.03,2127.92l-50.56-112.28h19.66l-46.51-103.3h29.94l-66.3-147.25c-2.16,3.85-67.74,147.25-67.74,147.25h30.75c-22.68,49.41-47.33,103.3-47.33,103.3h20.53c-26.64,58.09-44.13,93.02-51.42,112.28,106.85,32.62,228.98,0,228.98,0Z"/>
    <path class="cls-2" d="M2216.29,2114.73l-50.56-112.28h19.66l-46.51-103.3h29.94l-66.3-147.25c-2.16,3.85-67.74,147.25-67.74,147.25h30.75c-22.68,49.41-47.33,103.3-47.33,103.3h20.53c-26.64,58.09-44.13,93.02-51.42,112.28,106.85,32.62,228.98,0,228.98,0Z"/>
    <path class="cls-1" d="M277.47,1806.27l-50.56-112.28h19.66l-46.51-103.3h29.94l-66.3-147.25c-2.16,3.85-67.74,147.25-67.74,147.25h30.75c-22.68,49.41-47.33,103.3-47.33,103.3h20.53c-26.64,58.09-44.13,93.02-51.42,112.28,106.85,32.62,228.98,0,228.98,0Z"/>
    <path class="cls-2" d="M3032.95,2060.19l-50.56-112.28h19.66l-46.51-103.3h29.94l-66.3-147.25c-2.16,3.85-67.74,147.25-67.74,147.25h30.75c-22.68,49.41-47.33,103.3-47.33,103.3h20.53c-26.64,58.09-44.13,93.02-51.42,112.28,106.85,32.62,228.98,0,228.98,0Z"/>
    <path class="cls-7" d="M254.14,2064.13l-40.25-84.44h15.66l-37.04-77.69h23.84l-52.79-110.74c-1.72,2.9-53.94,110.74-53.94,110.74h24.48c-18.06,37.16-37.68,77.69-37.68,77.69h16.34c-21.21,43.69-35.14,69.96-40.94,84.44,85.08,24.53,182.32,0,182.32,0Z"/>
    <path class="cls-2" d="M671.62,1975.77l-50.56-112.28h19.66l-46.51-103.3h29.94l-66.3-147.25c-2.16,3.85-67.74,147.25-67.74,147.25h30.75c-22.68,49.41-47.33,103.3-47.33,103.3h20.53c-26.64,58.09-44.13,93.02-51.42,112.28,106.85,32.62,228.98,0,228.98,0Z"/>
    <path class="cls-7" d="M533.8,2027.75l-40.25-84.44h15.66l-37.04-77.69h23.84l-52.79-110.74c-1.72,2.9-53.94,110.74-53.94,110.74h24.48c-18.06,37.16-37.68,77.69-37.68,77.69h16.34c-21.21,43.69-35.14,69.96-40.94,84.44,85.08,24.53,182.32,0,182.32,0Z"/>
    <path class="cls-6" d="M381.47,1862.9l-33.95-78.29h13.2l-31.23-72.03h20.1l-44.52-102.67c-1.45,2.68-45.49,102.67-45.49,102.67h20.65c-15.23,34.45-31.78,72.03-31.78,72.03h13.78c-17.89,40.5-29.63,64.86-34.53,78.29,71.75,22.74,153.76,0,153.76,0Z"/>
  </g>
</svg>