<?xml version="1.0" encoding="UTF-8"?>
<svg id="Calque_3" data-name="Calque 3" xmlns="http://www.w3.org/2000/svg" viewBox="0 0 3840 2160">
  <defs>
    <style>
      .cls-1 {
        fill: #fac68d;
      }

      .cls-2 {
        fill: #d0811a;
      }

      .cls-3 {
        fill: #a7cea3;
      }

      .cls-4 {
        fill: #64555d;
      }

      .cls-5 {
        fill: #f0b061;
      }

      .cls-6 {
        fill: #123a50;
      }

      .cls-7 {
        fill: #244846;
      }

      .cls-8 {
        fill: #8c4b30;
      }

      .cls-9 {
        opacity: .38;
      }

      .cls-10 {
        fill: #5e5e5e;
      }

      .cls-11 {
        fill: #e99b32;
      }

      .cls-12 {
        fill: #0e5402;
      }

      .cls-13 {
        fill: #d3d3d3;
      }

      .cls-14 {
        fill: #8e636a;
      }

      .cls-15 {
        fill: #306026;
      }
    </style>
  </defs>
  <path class="cls-12" d="M3839.67,2047.83c-451.91-28.22-3720.8-17.67-3839.48,60.43l-.19,55.51c1358.2,0,3305.34-2.08,3840-3.78l-.33-112.17Z"/>
  <g>
    <path class="cls-10" d="M3435.17,1516.21s-611.19-26.62-614.38-24.67c7.09,33.57-159.54,563.57-186.58,578.04-27.04,14.47,375.78,26.57,375.78,26.57l620.21-2.98s-239.68-462.59-195.03-576.96Z"/>
    <path class="cls-13" d="M2820.79,1491.54c-3.19,172.55-65.53,527.06,1.06,598.07-176.89,22.12-277.43-25.69-277.43-25.69,0,0,261.48-433.8,276.37-572.39Z"/>
    <path class="cls-13" d="M2820.79,1491.54c4.47,174.64,0,542.63,7.2,597.53,64.39,15.88,297.51,7.29,297.51,7.29,0,0-304.72-605.22-304.71-604.82Z"/>
    <path class="cls-13" d="M3438.36,1511.72c-18.72,69.81,95.06,466.36,180.7,522.88-81.24,47.6-512.34,23.83-512.34,23.83l-285.48-567.43s433.78,7.24,617.12,20.71Z"/>
  </g>
  <path class="cls-15" d="M233.31,2136.73c-39.51-90.6-93.98-75.43-104.68-66.95-4.89-15.72,12.25-25.42,28.74-27.6,24.46-4.43,80.97,14.39,77.8,102.18l-1.86-7.63Z"/>
  <path class="cls-15" d="M234.3,2137.64c65.16-74.69,112.52-44.05,120.16-32.78,9.43-13.54-3.98-27.89-19.05-34.86-21.99-11.49-81.6-10.32-105.19,74.37l4.09-6.73Z"/>
  <path class="cls-15" d="M1523.22,2139.51c1.86-49.13-24.37-52.5-30.66-50.64,1.16-8.15,10.43-9.35,17.87-7.22,11.29,2.61,31.4,21.99,12,61.72l.78-3.86Z"/>
  <path class="cls-15" d="M3494.93,2085.48c-37.68-124.47-89.61-103.63-99.82-91.98-4.66-21.59,11.68-34.93,27.41-37.92,23.32-6.08,77.21,19.76,74.18,140.38l-1.77-10.49Z"/>
  <path class="cls-15" d="M3339.36,2094.7c-10.63-86.3-59.03-89.56-69.86-85.66-.23-14.4,16.19-17.45,30.26-14.46,21.16,3.43,63.05,35.36,39.29,106.97l.31-6.84Z"/>
  <path class="cls-15" d="M2481.23,2058.67c-43.77-128.27-104.1-106.79-115.95-94.78-5.42-22.25,13.57-35.99,31.84-39.07,27.09-6.27,89.68,20.37,86.17,144.67l-2.06-10.81Z"/>
  <path class="cls-15" d="M3340.02,2095.82c-10.63-86.3-59.03-89.56-69.86-85.66-.23-14.4,16.19-17.45,30.26-14.46,21.16,3.43,63.05,35.36,39.29,106.97l.31-6.84Z"/>
  <path class="cls-15" d="M790.96,2108.93c-56.63-102.66-96.19-74.35-102.46-62.12-8.25-18.17,2.85-33.05,15.49-38.7,18.42-9.82,68.97,2.7,90.56,109.73l-3.59-8.92Z"/>
  <path class="cls-15" d="M3339.27,2107.32c54.28-63.38,95.37-35.06,102.12-24.95,7.8-11.57-3.94-24.55-16.96-31.13-19.02-10.75-69.98-11.6-88.52,61.85l3.37-5.77Z"/>
  <path class="cls-15" d="M3491.62,2104.57c37.68-124.47,89.61-103.63,99.82-91.98,4.66-21.59-11.68-34.93-27.41-37.92-23.32-6.08-77.21,19.76-74.18,140.38l1.77-10.49Z"/>
  <path class="cls-15" d="M2485.61,2058.67c43.77-128.27,104.1-106.79,115.95-94.78,5.42-22.25-13.57-35.99-31.84-39.07-27.09-6.27-89.68,20.37-86.17,144.67l2.06-10.81Z"/>
  <path class="cls-15" d="M1521.87,2138.34c35.4-34.12,55.39-16.8,58.19-10.87,5.31-6.29.03-14.01-6.52-18.14-9.47-6.68-37.32-8.77-54.03,32.17l2.36-3.15Z"/>
  <path class="cls-15" d="M794.25,2108.23c5.37-117.07,40.04-108.77,47.92-100.47-.21-19.95-12.08-28.53-22.11-28.12-15.1-.84-44.34,32.41-25.41,138.18l-.4-9.59Z"/>
  <path class="cls-15" d="M2371.12,2120.13c-32.53-112.64-77.37-93.78-86.18-83.24-4.03-19.54,10.09-31.61,23.66-34.31,20.13-5.51,66.66,17.89,64.05,127.04l-1.53-9.49Z"/>
  <path class="cls-15" d="M2374.48,2120.18c31.13-112.98,63.1-97.22,68.95-87.39,4.2-19.5-5.47-30.5-15.34-32.31-14.54-4.16-50.41,21.8-55.34,129.14l1.73-9.44Z"/>
  <path class="cls-15" d="M692.56,2109.46c-12.2-47.63-38.31-43.4-43.8-39.82-1.21-8.14,7.33-11.93,15.08-12.01,11.56-.71,36.36,12.14,29.07,55.75l-.35-3.92Z"/>
  <path class="cls-15" d="M693.29,2109.55c24.22-42.78,48.32-31.87,52.69-26.99,3.3-7.54-3.96-13.44-11.42-15.53-10.98-3.71-38.27,2.21-42.64,46.22l1.36-3.7Z"/>
  <path class="cls-15" d="M3676.92,2071.1c-35.66-187.81-84.82-156.37-94.47-138.79-4.41-32.58,11.06-52.7,25.94-57.21,22.07-9.18,73.07,29.82,70.21,211.83l-1.68-15.83Z"/>
  <path class="cls-15" d="M3677.81,2072.98c58.81-154.84,101.55-91.31,108.44-67.95,8.51-28.07-3.59-57.81-17.19-72.27-19.84-23.81-73.64-21.4-94.93,154.18l3.69-13.95Z"/>
  <path class="cls-15" d="M1072.55,2109.58c-26.2-41.6-49.76-29.57-53.9-24.48-3.65-7.38,3.32-13.61,10.67-16.05,10.79-4.22,38.33.41,44.76,44.16l-1.54-3.63Z"/>
  <path class="cls-15" d="M1073.26,2109.45c9.95-48.15,36.23-45.15,41.88-41.83.83-8.19-7.89-11.58-15.63-11.29-11.59-.17-35.75,13.83-26.42,57.06l.17-3.94Z"/>
  <path class="cls-15" d="M2941.09,2131.97c1.55-61.11-24.7-65.1-30.97-62.73,1.11-10.14,10.37-11.71,17.83-9.12,11.3,3.16,31.54,27.1,12.39,76.66l.76-4.81Z"/>
  <path class="cls-15" d="M2941.76,2132.33c35.18-42.7,55.29-21.33,58.12-13.98,5.27-7.87-.06-17.42-6.64-22.51-9.51-8.23-37.37-10.61-53.82,40.42l2.34-3.94Z"/>
  <path class="cls-15" d="M2073.67,2109.58c-47.6-50.25-79.66-20.88-84.64-11.23-6.97-9.39,1.94-22.11,12.23-29.31,14.97-11.51,56.51-17.66,75.46,45.27l-3.05-4.74Z"/>
  <path class="cls-15" d="M2074.7,2109.04c4.2-77.38,43.53-85.38,52.57-83.08-.56-12.75-14.12-13.7-25.45-9.58-17.09,5.27-49.62,37.92-26.51,98.67l-.61-6.01Z"/>
  <ellipse class="cls-9" cx="1699.99" cy="2094.64" rx="157.17" ry="28.9"/>
  <g>
    <path class="cls-8" d="M1655.57,2042.03c-4.62,16.18-.58,42,.96,43.54s1.54,9.44,0,10.4c-1.28.8-32.55.27-43.15.07-2.5-.05-4.8-1.39-6.02-3.57-1.63-2.9-2.5-6.72,3.12-7.87,9.91-2.02,21.43,2.7,25.43-25.62,4.45-31.43,19.65-16.95,19.65-16.95Z"/>
    <path class="cls-8" d="M1752.56,2045.28c-4.62,16.18-.58,42,.96,43.54,1.54,1.54,1.54,9.44,0,10.4-1.28.8-32.55.27-43.15.07-2.5-.05-4.8-1.39-6.02-3.57-1.63-2.9-2.5-6.72,3.12-7.87,9.91-2.02,21.43,2.7,25.43-25.62,4.45-31.43,19.65-16.95,19.65-16.95Z"/>
    <path class="cls-6" d="M1643.85,1856.19s-14.39,109.69-13.62,135.38c.77,25.69.26,70.9.26,70.9h28.26s8.73-86.83,6.94-93.51c-1.8-6.68,20.81-66.79,22.35-69.62,1.54-2.83,2.06-2.06,2.83,3.08.77,5.14,5.95,41.66,10.28,48.04,15.16,22.35,27.49,82.46,26.46,114.83,11.3,2.2,24.24,1.01,24.15.26,0,0,12.07-59.34-11.05-100.44-2.83-24.15,7.64-60.43-2.76-98.39-26.78,0-33.97,8.22-94.09-10.53Z"/>
    <path class="cls-1" d="M1635.63,1714.52c-10.79-16.57-18.08-41.82-25.82-71.67-7.63-29.41.58-36.8-4.82-56.45-5.39-19.65-8.59-9.28-7.9-19.72.32-4.88,2.86-2.57,3.21-2.31s1.76.58,2.15-1.7,3.21-1.29,3.25-.71,1.79,1.43,2.31.55c.92-1.56,3.07-2.48,3.4-1.03s2.12,1.25,2.25.26c.13-1,1.51-1.54,2.12-1.48,2.15.23,7.06,7.19,3.95,12.17-7.15,11.43,8.7,32.01,11.27,64.64.85,10.76,10.54,38.25,16.38,45.47.7.87,7.9,17.92,10.6,19.84,2.7,1.93-22.35,12.14-22.35,12.14Z"/>
    <path class="cls-1" d="M1736.33,1692.1c9.25-13.36,20.17-83.42,19.14-86.51s-7.58-5.91-5.52-11.17c2.67-6.85,1.41-7.24,3.08-8.46.79-.58,2.95.97,4.14,1.01,1.06.03,1.48-1.36,2.63-1.35s1.46,1.85,2.62,1.56,1.85-2.3,3.26-1.38,1.35,2.13,2.6,1.65c1.25-.48,2.5-1.25,2.6-.19s1.32,5.68-1.09,9.25c-2.41,3.56-5.65,9.54-5.65,12.04s1.09,76.55-7.39,91.97c-8.48,15.41-20.42-8.41-20.42-8.41Z"/>
    <path class="cls-1" d="M1705.95,1695.51c-2.31-15.16,17.34-23.12,15.99-22.99s-15.54-19.01-17.15-18.5c-1.61.51-20.62-1.54-23.96,2.31-3.34,3.85-4.62,3.85-5.14,8.48-.51,4.62,1.8,9.5,0,12.59-1.8,3.08-5.65,7.35-4.88,8.3s1.22,1.93,4.05.82-.06,10.34.45,12.91c.51,2.57,5.07,5.01,8.67,4.5,3.6-.51,1.48,4.82-.58,7.39-2.06,2.57,5.73,9.89,13.87,8.86,8.14-1.03,13.42-2.12,14.45-2.89-5.52-5.01-3.47-6.61-5.78-21.77Z"/>
    <path class="cls-3" d="M1762.89,1701.61c1.1.22,1.62,1.48,1.01,2.42-3.34,5.11-12.93,19.21-9.82,29.04,14.64,46.24-9.64,129.03-18.26,135.2-8.91,6.37-95.92-9.63-94.66-13.49,1.26-3.85,15.67-39.01,17.34-46.88,2.83-13.36-2.38-54.74-1.61-62.44.77-7.71-21-24.9-32.04-35.56,5.78-1.93,17.47-10.79,27.49-20.81,0,0,10.53,29.67,48.3,29.93,32.88-7.45,32.83-22.4,35.71-26.72,3.39,4.63,20.53,8.09,26.56,9.31Z"/>
    <path class="cls-7" d="M1685.59,1702.38c3.72,4.09,10.37,4.73,23.18,4.23.8-.03,1.52-.52,1.82-1.27,1.69-4.25,7.79-14.29,13.08-17.73.87-.57,1.65-1.27,2.21-2.15,11.43-17.99-14.1-39.74-19.16-39.93s-32.93,8.1-37.36,6.17c-4.43-1.93,4.5,7.17,8.93,7.17s6.27-1.39,4.54,2.08-2.31,2.7-2.7,5.01-1.16,12.91-.58,13.68,2.31,2.12,4.05.19c1.73-1.93,3.27-3.84,4.24-5.39s14.45,8.48-1.93,15.41c-.39,8.28-.32,12.52-.32,12.52Z"/>
    <path class="cls-4" d="M1662.6,1705.14c3.6,4.37,11.82,17.73,15.16,35.45,3.34,17.73,14.13,4.11,14.13,4.11,0,0-5.91-33.91-12.59-37.76s-16.7-1.8-16.7-1.8Z"/>
    <path class="cls-4" d="M1710.06,1714.52c-.45-2.57,6.55-8.67,8.86-6.36,2.31,2.31,6.36,5.33,10.21,23.06s-11.3-.39-11.3-.39c0,0-3.15-14-7.77-16.31Z"/>
    <path class="cls-4" d="M1658.75,1784.26c-3.08,3.85-2.7,14.26-2.7,16.57s13.87,31.98,25.82,31.21c11.95-.77,3.47-25.82,3.47-25.82,0,0-6.04,3.93-18.49-5.81-3.9-3.05-8.09-16.15-8.09-16.15Z"/>
    <path class="cls-2" d="M1747.76,1732.24c-30.06-3.85-58.96-13.49-63.19,0-4.24,13.49-1.16,118.3,0,123.69,1.16,5.39,5.11,13.49,8.67,15.12,3.56,1.64,19.27,9.03,60.79-1.45,14.93-21.64,13.65-86.38,1.32-110.53-2.38-4.66-7.58-26.84-7.58-26.84Z"/>
    <path class="cls-11" d="M1676.73,1727.14c1.28,22.55,4.95,118.01,3.4,127.44-1.54,9.43,14.92,17.16,14.92,17.16,0,0,.1-97.89,1.72-108.04,2.68-16.83-20.04-36.57-20.04-36.57Z"/>
    <path class="cls-5" d="M1676.73,1727.14c10.28,11.85,19.52,35.48,19.52,40.64s72.19,2.79,73.21-1.25-15.93-38.28-23.89-39.39c-10.18-1.43-62.17-2.7-68.85,0Z"/>
    <path class="cls-4" d="M1719.12,1756.52c-4.39.3-12.84-1.03-14.9,0s4.88,7.19,4.11,10.28c-.77,3.08.26,10.53.26,10.53h12.59s-.77-20.9-2.06-20.81Z"/>
    <path class="cls-4" d="M1736.59,1757.29h14.39s5.05,15.21,3.34,20.04c-.77,2.17-13.97,0-13.97,0,0,0-1.44-19.78-3.75-20.04Z"/>
    <path class="cls-14" d="M1763.3,1802.24c-8.48-4.11-59.86-.51-64.74,4.88-4.88,5.39-8.11,48.55-5.03,51.38s3.75,4.11,9.66,4.62c12.28,1.07,46.74-18.61,60.11-36.48,8.94-11.94,0-24.4,0-24.4Z"/>
    <path class="cls-4" d="M1708.59,1814.57c-6.94,8.73-5.91,47.27-5.39,48.04.51.77,55.04,1.82,58.57-4.37,7.58-13.29,7.95-46.15,5.68-47.97-4.65-3.72-51.92-4.43-58.85,4.3Z"/>
  </g>
</svg>