<?xml version="1.0" encoding="UTF-8"?>
<svg id="montagne_millieu" xmlns="http://www.w3.org/2000/svg" viewBox="0 0 3840 2160">
  <defs>
    <style>
      .cls-1 {
        fill: #44e065;
      }

      .cls-2 {
        fill: #345ae2;
      }

      .cls-3 {
        fill: #44a8e0;
      }

      .cls-4 {
        fill: #ed972f;
      }

      .cls-5 {
        fill: #ef3f3f;
      }

      .cls-6 {
        fill: #ddd031;
      }

      .cls-7 {
        fill: #7d38d6;
      }
    </style>
  </defs>
  <path class="cls-7" d="M1322.79,372.36c-702.73,0-1272.41,322.96-1272.41,721.35h116.65c0-382.28,591.73-647.63,1155.77-647.63s1180.21,265.35,1180.21,647.63h92.2c0-398.39-569.68-721.35-1272.41-721.35Z"/>
  <path class="cls-2" d="M1322.79,338.95c-702.73,0-1272.41,322.96-1272.41,721.35h116.65c0-382.28,591.73-647.63,1155.77-647.63s1180.21,265.35,1180.21,647.63h92.2c0-398.39-569.68-721.35-1272.41-721.35Z"/>
  <path class="cls-3" d="M1322.79,292.17c-702.73,0-1272.41,322.96-1272.41,721.35h116.65c0-382.28,591.73-647.63,1155.77-647.63s1180.21,265.35,1180.21,647.63h92.2c0-398.39-569.68-721.35-1272.41-721.35Z"/>
  <path class="cls-1" d="M1311.26,243.69C608.53,243.69,38.85,566.65,38.85,965.04h116.65c0-382.28,591.73-647.63,1155.77-647.63s1180.21,265.35,1180.21,647.63h92.2c0-398.39-569.68-721.35-1272.41-721.35Z"/>
  <path class="cls-6" d="M1331.53,182.53C628.79,182.53,59.12,505.49,59.12,903.88h116.65c0-382.28,591.73-647.63,1155.77-647.63s1180.21,265.35,1180.21,647.63h92.2c0-398.39-569.68-721.35-1272.41-721.35Z"/>
  <path class="cls-4" d="M1331.53,124.15C628.79,124.15,59.12,447.11,59.12,845.5h116.65c0-382.28,591.73-647.63,1155.77-647.63s1180.21,265.35,1180.21,647.63h92.2c0-398.39-569.68-721.35-1272.41-721.35Z"/>
  <path class="cls-5" d="M1347.76,52.48C645.02,52.48,75.34,375.44,75.34,773.83h116.65c0-382.28,591.73-647.63,1155.77-647.63s1180.21,265.35,1180.21,647.63h92.2c0-398.39-569.68-721.35-1272.41-721.35Z"/>
</svg>