<?xml version="1.0" encoding="UTF-8"?>
<svg xmlns="http://www.w3.org/2000/svg" viewBox="0 0 3840 2160">
  <defs>
    <style>
      .cls-1 {
        fill: none;
      }

      .cls-2 {
        fill: #509377;
      }

      .cls-3 {
        fill: #94edc4;
      }

      .cls-4 {
        fill: #bdeaef;
      }

      .cls-5 {
        fill: #59aa89;
      }

      .cls-6 {
        fill: #ededed;
      }
    </style>
  </defs>
  <g id="montagne_millieu">
    <rect class="cls-4" x="0" y="0" width="3840" height="2160"/>
    <polygon class="cls-2" points="1114.33 895.13 982.54 651.18 758.5 965.62 332.1 355.94 48.49 706.67 203.46 1875.7 203.46 2163.78 1750.13 2160 1481.55 1585.76 1153.63 866.17 1114.33 895.13"/>
    <polygon class="cls-3" points="3294.55 959.45 3027.51 577.71 2785.91 879.3 2520.8 561.79 2252.61 947.12 2126.22 762.16 1963.32 1015.33 1435.7 1776.36 1423.36 2149.37 3840 2090.79 3840 1484.51 3840 1024.19 3599.74 937.87 3420.94 657.35 3294.55 959.45"/>
    <polygon class="cls-5" points="3840 1024.19 3603.47 678.93 3480.16 863.89 3233.54 352.16 2641.67 1246.14 2173.82 1919.64 2012.8 2164.78 3840 2160 3840 1024.19"/>
    <polygon class="cls-6" points="3233.45 352.16 3376.75 649.4 3296.09 621.9 3215.62 706.67 3135.79 621.9 3037.96 650.17 3233.45 352.16"/>
    <polygon class="cls-6" points="332.1 352.2 501.72 596.71 459.14 570.36 452.13 613.96 388.62 553.08 324.91 696.93 276.61 546.37 177.43 602.77 161.58 561.79 332.1 352.2"/>
    <polygon class="cls-6" points="3603.47 678.93 3768.23 919.42 3672.18 861.32 3620.8 924 3549.39 861.32 3467.18 882.9 3603.47 678.93"/>
  </g>
  <g id="essaie_arc_en_ciel">
    <path class="cls-1" d="M711.14,1018.67c0-4.24.03-8.47.08-12.7-.05,4.23-.08,8.46-.08,12.7Z"/>
  </g>
</svg>