<?xml version="1.0" encoding="UTF-8"?>
<svg id="montagne_millieu" xmlns="http://www.w3.org/2000/svg" viewBox="0 0 3840 2160">
  <defs>
    <style>
      .cls-1 {
        fill: #ddd373;
      }

      .cls-2 {
        fill: #f27c7c;
      }

      .cls-3 {
        fill: #8c61d1;
      }

      .cls-4 {
        fill: #7391e5;
      }

      .cls-5 {
        fill: #e5a967;
      }

      .cls-6 {
        fill: #8cc4dd;
      }

      .cls-7 {
        fill: #94d69f;
      }
    </style>
  </defs>
  <path class="cls-3" d="M995.31,310.22c-539.22,0-976.34,224.69-976.34,501.86h89.51c0-265.96,454.04-450.57,886.84-450.57s905.6,184.61,905.6,450.57h70.75c0-277.17-437.12-501.86-976.34-501.86Z"/>
  <path class="cls-4" d="M995.31,286.97c-539.22,0-976.34,224.69-976.34,501.86h89.51c0-265.96,454.04-450.57,886.84-450.57s905.6,184.61,905.6,450.57h70.75c0-277.17-437.12-501.86-976.34-501.86Z"/>
  <path class="cls-6" d="M995.31,254.43C456.09,254.43,18.96,479.12,18.96,756.28h89.51c0-265.96,454.04-450.57,886.84-450.57s905.6,184.61,905.6,450.57h70.75c0-277.17-437.12-501.86-976.34-501.86Z"/>
  <path class="cls-7" d="M986.46,220.7C447.24,220.7,10.12,445.39,10.12,722.56h89.51c0-265.96,454.04-450.57,886.84-450.57s905.6,184.61,905.6,450.57h70.75c0-277.17-437.12-501.86-976.34-501.86Z"/>
  <path class="cls-1" d="M1002.01,178.15C462.79,178.15,25.67,402.84,25.67,680.01h89.51c0-265.96,454.04-450.57,886.84-450.57s905.6,184.61,905.6,450.57h70.75c0-277.17-437.12-501.86-976.34-501.86Z"/>
  <path class="cls-5" d="M1002.01,137.53C462.79,137.53,25.67,362.22,25.67,639.39h89.51c0-265.96,454.04-450.57,886.84-450.57s905.6,184.61,905.6,450.57h70.75c0-277.17-437.12-501.86-976.34-501.86Z"/>
  <path class="cls-2" d="M1014.46,87.67c-539.22,0-976.34,224.69-976.34,501.86h89.51c0-265.96,454.04-450.57,886.84-450.57s905.6,184.61,905.6,450.57h70.75c0-277.17-437.12-501.86-976.34-501.86Z"/>
</svg>