<?xml version="1.0" encoding="UTF-8"?>
<svg id="montagne_millieu" xmlns="http://www.w3.org/2000/svg" viewBox="0 0 3840 2160">
  <defs>
    <style>
      .cls-1 {
        fill: #65ba9b;
      }

      .cls-2 {
        fill: #87ddba;
      }

      .cls-3 {
        fill: #ededed;
      }
    </style>
  </defs>
  <polygon class="cls-2" points="0 1039.41 236.53 694.15 359.84 879.11 606.46 367.39 1198.33 1261.36 1666.18 1934.86 1827.2 2180 0 2175.22 0 1039.41"/>
  <polygon class="cls-1" points="2012.8 1047.96 2249.34 702.7 2379 958.57 2653.35 375.94 3229.81 1273 3678.99 1943.42 3840 2171.45 1300.06 2157.73 2012.8 1047.96"/>
  <polygon class="cls-3" points="606.46 367.39 914.56 832.83 725.94 720.5 621.1 845.11 500.87 733.38 389.86 883.43 388.62 812.96 606.46 367.39"/>
  <polygon class="cls-3" points="237.03 686.46 448.21 1005.48 331.65 923.12 241.64 1030.11 184.13 906.16 35.06 988.23 237.03 686.46"/>
  <polygon class="cls-3" points="2650.76 367.39 2886.1 739.7 2761.25 696.86 2665.4 845.11 2563.96 696.86 2436.02 822.93 2650.76 367.39"/>
  <polygon class="cls-3" points="2249.3 696.86 2385.42 967.34 2283.43 888.44 2235.51 999.41 2181.27 891.9 2085.61 937.26 2249.3 696.86"/>
</svg>